<?xml version="1.0" encoding="UTF-8"?>
<svg xmlns="http://www.w3.org/2000/svg" xmlns:xlink="http://www.w3.org/1999/xlink" width="1920px" height="1280px" viewBox="0 0 1920 1280" version="1.1">
<defs>
<filter id="alpha" filterUnits="objectBoundingBox" x="0%" y="0%" width="100%" height="100%">
  <feColorMatrix type="matrix" in="SourceGraphic" values="0 0 0 0 1 0 0 0 0 1 0 0 0 0 1 0 0 0 1 0"/>
</filter>
<mask id="mask0">
  <g filter="url(#alpha)">
<rect x="0" y="0" width="1920" height="1280" style="fill:rgb(0%,0%,0%);fill-opacity:0.4;stroke:none;"/>
  </g>
</mask>
<clipPath id="clip1">
  <rect x="0" y="0" width="1920" height="1280"/>
</clipPath>
<g id="surface5" clip-path="url(#clip1)">
<path style=" stroke:none;fill-rule:nonzero;fill:rgb(80%,79.607843%,78.823529%);fill-opacity:1;" d="M 1185.726562 552.253906 C 1242.894531 608.664062 1242.894531 700.0625 1185.726562 756.453125 C 1128.527344 812.835938 1035.824219 812.835938 978.621094 756.453125 C 921.453125 700.0625 921.453125 608.664062 978.621094 552.253906 C 1035.824219 495.886719 1128.527344 495.886719 1185.726562 552.253906 Z M 1185.726562 552.253906 "/>
</g>
<mask id="mask1">
  <g filter="url(#alpha)">
<rect x="0" y="0" width="1920" height="1280" style="fill:rgb(0%,0%,0%);fill-opacity:0.2;stroke:none;"/>
  </g>
</mask>
<clipPath id="clip2">
  <rect x="0" y="0" width="1920" height="1280"/>
</clipPath>
<g id="surface8" clip-path="url(#clip2)">
<path style=" stroke:none;fill-rule:nonzero;fill:rgb(20%,20%,20%);fill-opacity:1;" d="M 1070.125 510.492188 C 1103.414062 513.214844 1136.03125 527.109375 1161.527344 552.25 C 1218.699219 608.664062 1218.699219 700.058594 1161.527344 756.453125 C 1136.03125 781.605469 1103.414062 795.539062 1070.125 798.195312 C 1111.46875 801.5625 1154.089844 787.691406 1185.726562 756.453125 C 1242.894531 700.058594 1242.894531 608.664062 1185.726562 552.25 C 1154.089844 521.027344 1111.46875 507.128906 1070.125 510.492188 Z M 1070.125 510.492188 "/>
</g>
<mask id="mask2">
  <g filter="url(#alpha)">
<rect x="0" y="0" width="1920" height="1280" style="fill:rgb(0%,0%,0%);fill-opacity:0.501961;stroke:none;"/>
  </g>
</mask>
<clipPath id="clip3">
  <rect x="0" y="0" width="1920" height="1280"/>
</clipPath>
<g id="surface11" clip-path="url(#clip3)">
<path style=" stroke:none;fill-rule:evenodd;fill:rgb(20%,20%,20%);fill-opacity:1;" d="M 1361.738281 898.871094 C 1361.738281 912.34375 1350.667969 923.273438 1336.988281 923.273438 C 1323.332031 923.273438 1312.238281 912.34375 1312.238281 898.871094 C 1312.238281 885.390625 1323.332031 874.472656 1336.988281 874.472656 C 1350.667969 874.472656 1361.738281 885.394531 1361.738281 898.871094 Z M 1361.738281 898.871094 "/>
<path style=" stroke:none;fill-rule:evenodd;fill:rgb(88.235294%,89.803922%,92.156863%);fill-opacity:1;" d="M 1350.972656 911.542969 C 1350.972656 911.519531 1350.972656 911.484375 1350.972656 911.453125 C 1350.972656 908.121094 1349.757812 905.054688 1347.746094 902.667969 C 1344.703125 901.433594 1340.988281 900.710938 1336.988281 900.710938 C 1332.988281 900.710938 1329.285156 901.433594 1326.230469 902.667969 C 1324.21875 905.054688 1323.007812 908.121094 1323.007812 911.453125 C 1323.007812 911.484375 1323.007812 911.519531 1323.007812 911.542969 Z M 1350.972656 911.542969 "/>
<path style=" stroke:none;fill-rule:evenodd;fill:rgb(88.235294%,89.803922%,92.156863%);fill-opacity:1;" d="M 1343.71875 892.84375 C 1343.71875 896.511719 1340.710938 899.488281 1336.988281 899.488281 C 1333.269531 899.488281 1330.261719 896.511719 1330.261719 892.84375 C 1330.261719 889.179688 1333.269531 886.203125 1336.988281 886.203125 C 1340.710938 886.203125 1343.71875 889.179688 1343.71875 892.84375 Z M 1343.71875 892.84375 "/>
</g>
</defs>
<g id="surface1">
<path style=" stroke:none;fill-rule:nonzero;fill:rgb(81.568627%,86.27451%,89.803922%);fill-opacity:1;" d="M 0 0 L 1920.710938 0 L 1920.710938 1279.941406 L 0 1279.941406 Z M 0 0 "/>
<path style=" stroke:none;fill-rule:nonzero;fill:rgb(81.568627%,86.27451%,89.803922%);fill-opacity:1;" d="M 1053.886719 105.273438 L 809.027344 105.273438 C 788.003906 105.273438 770.824219 122.238281 770.824219 142.96875 L 770.824219 146.050781 C 770.824219 166.777344 788.007812 183.726562 809.027344 183.726562 L 1053.886719 183.726562 C 1074.929688 183.726562 1092.113281 166.78125 1092.113281 146.050781 L 1092.113281 142.96875 C 1092.113281 122.238281 1074.929688 105.273438 1053.886719 105.273438 Z M 1053.886719 105.273438 "/>
<path style=" stroke:none;fill-rule:nonzero;fill:rgb(81.568627%,86.27451%,89.803922%);fill-opacity:1;" d="M 1200.28125 257.871094 L 820.152344 257.871094 C 798.273438 257.871094 780.339844 275.515625 780.339844 297.09375 C 780.339844 318.664062 798.273438 336.339844 820.152344 336.339844 L 1200.28125 336.339844 C 1222.191406 336.339844 1240.0625 318.664062 1240.0625 297.09375 C 1240.0625 275.515625 1222.191406 257.871094 1200.28125 257.871094 Z M 1200.28125 257.871094 "/>
<path style=" stroke:none;fill-rule:nonzero;fill:rgb(81.568627%,86.27451%,89.803922%);fill-opacity:1;" d="M 1351.238281 257.871094 L 1289.960938 257.871094 C 1268.828125 257.871094 1251.535156 274.917969 1251.535156 295.757812 L 1251.535156 298.453125 C 1251.535156 319.289062 1268.828125 336.335938 1289.960938 336.335938 L 1351.238281 336.335938 C 1372.375 336.335938 1389.664062 319.289062 1389.664062 298.453125 L 1389.664062 295.757812 C 1389.664062 274.917969 1372.375 257.871094 1351.238281 257.871094 Z M 1351.238281 257.871094 "/>
<path style=" stroke:none;fill-rule:nonzero;fill:rgb(81.568627%,86.27451%,89.803922%);fill-opacity:1;" d="M 1009.257812 181.613281 L 816.75 181.613281 C 836.140625 181.613281 851.992188 197.242188 851.992188 216.363281 L 851.992188 225.304688 C 851.992188 244.425781 836.140625 260.082031 816.75 260.082031 L 1009.257812 260.082031 C 989.894531 260.082031 974.011719 244.425781 974.011719 225.304688 L 974.011719 216.363281 C 974.011719 197.246094 989.894531 181.613281 1009.257812 181.613281 Z M 1009.257812 181.613281 "/>
<path style=" stroke:none;fill-rule:nonzero;fill:rgb(30.196078%,30.196078%,30.196078%);fill-opacity:1;" d="M 1316.082031 1000.847656 L 1461.4375 1000.847656 L 1461.4375 1022.429688 L 1316.082031 1022.429688 Z M 1316.082031 1000.847656 "/>
<path style=" stroke:none;fill-rule:nonzero;fill:rgb(30.196078%,30.196078%,30.196078%);fill-opacity:1;" d="M 1395.726562 1052.484375 L 1584.410156 1052.484375 L 1584.410156 1074.078125 L 1395.726562 1074.078125 Z M 1395.726562 1052.484375 "/>
<path style=" stroke:none;fill-rule:nonzero;fill:rgb(100%,100%,100%);fill-opacity:1;" d="M 1763.96875 354.113281 L 1843.417969 380.054688 L 1746.167969 482.226562 L 1378.605469 624.761719 Z M 1763.96875 354.113281 "/>
<path style=" stroke:none;fill-rule:nonzero;fill:rgb(31.372549%,74.901961%,84.705882%);fill-opacity:1;" d="M 1743.210938 368.703125 L 1740.804688 352.257812 L 1378.605469 624.761719 Z M 1743.210938 368.703125 "/>
<path style=" stroke:none;fill-rule:nonzero;fill:rgb(100%,100%,100%);fill-opacity:1;" d="M 1740.804688 352.257812 L 1654.246094 331.589844 L 1528.246094 412.109375 L 1378.605469 624.761719 Z M 1740.804688 352.257812 "/>
<path style=" stroke:none;fill-rule:nonzero;fill:rgb(31.372549%,74.901961%,84.705882%);fill-opacity:1;" d="M 1744.839844 482.417969 L 1773.222656 454.394531 L 1780.46875 513.515625 L 1378.605469 624.761719 Z M 1744.839844 482.417969 "/>
<path style=" stroke:none;fill-rule:nonzero;fill:rgb(69.803922%,88.627451%,93.72549%);fill-opacity:1;" d="M 1110.429688 318.347656 L 1110.429688 449.070312 C 1172.179688 453.296875 1221.132812 504.183594 1221.035156 566.117188 C 1221.003906 579.855469 1218.566406 593.050781 1214.117188 605.3125 L 1222.945312 608.035156 L 1341.351562 641.953125 C 1349.140625 618.089844 1353.527344 592.664062 1353.5625 566.246094 C 1353.699219 432.015625 1245.5625 322.703125 1110.429688 318.347656 Z M 1110.429688 318.347656 "/>
<path style=" stroke:none;fill-rule:nonzero;fill:rgb(100%,100%,100%);fill-opacity:1;" d="M 1097.183594 318.25 C 1029.878906 319.566406 969.238281 346.910156 924.863281 390.527344 L 1019.777344 481.636719 C 1040.042969 462.394531 1067.167969 450.128906 1097.183594 448.910156 Z M 1097.183594 318.25 "/>
<path style=" stroke:none;fill-rule:nonzero;fill:rgb(96.470588%,56.470588%,43.921569%);fill-opacity:1;" d="M 1097.183594 683.089844 C 1033.839844 680.476562 983.167969 628.882812 983.203125 565.859375 C 983.269531 537.472656 993.570312 511.421875 1010.683594 491.148438 L 915.609375 399.847656 C 875.332031 443.753906 850.804688 501.875 850.710938 565.703125 C 850.578125 701.039062 960.464844 811.097656 1097.183594 813.691406 Z M 1097.183594 683.089844 "/>
<path style=" stroke:none;fill-rule:nonzero;fill:rgb(100%,85.882353%,46.666667%);fill-opacity:1;" d="M 1208.824219 617.566406 C 1190.566406 654.089844 1153.667969 679.960938 1110.429688 682.910156 L 1110.429688 813.691406 C 1214.082031 810.367188 1301.851562 745.179688 1336.992188 654.3125 Z M 1208.824219 617.566406 "/>
<path style=" stroke:none;fill-rule:nonzero;fill:rgb(100%,100%,100%);fill-opacity:1;" d="M 232.964844 156.890625 L 882.183594 156.890625 L 882.183594 1003.324219 L 232.964844 1003.324219 Z M 232.964844 156.890625 "/>
<path style=" stroke:none;fill-rule:nonzero;fill:rgb(69.803922%,88.627451%,93.72549%);fill-opacity:1;" d="M 232.964844 885.171875 L 882.183594 885.171875 L 882.183594 892.890625 L 232.964844 892.890625 Z M 232.964844 885.171875 "/>
<path style=" stroke:none;fill-rule:nonzero;fill:rgb(100%,85.882353%,46.666667%);fill-opacity:1;" d="M 882.183594 872.429688 L 232.964844 872.429688 L 232.964844 747.632812 L 277.207031 786.988281 L 340.15625 763.082031 L 385.601562 776.804688 L 470.210938 684.351562 L 543.625 730.765625 L 582.246094 696.996094 L 642.210938 723.519531 L 746.019531 643.597656 L 803.742188 669.589844 L 882.183594 588.730469 Z M 882.183594 872.429688 "/>
<path style=" stroke:none;fill-rule:nonzero;fill:rgb(69.803922%,88.627451%,93.72549%);fill-opacity:1;" d="M 882.183594 872.429688 L 232.964844 872.429688 L 232.964844 833.394531 L 279.316406 812.304688 L 338.046875 775.75 L 386.3125 794.03125 L 469.144531 754.648438 L 537.324219 777.144531 L 582.246094 739.847656 L 634.863281 792.613281 L 733.480469 730.558594 L 804.257812 702.894531 L 882.183594 741.992188 Z M 882.183594 872.429688 "/>
<path style=" stroke:none;fill-rule:nonzero;fill:rgb(96.470588%,56.470588%,43.921569%);fill-opacity:1;" d="M 882.183594 872.429688 L 232.964844 872.429688 L 232.964844 843.222656 L 275.128906 852.394531 L 338.046875 816.515625 L 387.386719 815.792969 L 464.988281 787.660156 L 540.472656 825.675781 L 576.429688 763.082031 L 634.863281 809.46875 L 734.523438 784.171875 L 803.742188 750.414062 L 882.183594 771.042969 Z M 882.183594 872.429688 "/>
<path style=" stroke:none;fill-rule:nonzero;fill:rgb(96.470588%,56.470588%,43.921569%);fill-opacity:1;" d="M 305.175781 404.238281 L 453.90625 404.238281 L 453.90625 412.914062 L 305.175781 412.914062 Z M 305.175781 404.238281 "/>
<path style=" stroke:none;fill-rule:nonzero;fill:rgb(96.470588%,56.470588%,43.921569%);fill-opacity:1;" d="M 305.175781 384.363281 L 800.296875 384.363281 L 800.296875 393.058594 L 305.175781 393.058594 Z M 305.175781 384.363281 "/>
<path style=" stroke:none;fill-rule:nonzero;fill:rgb(96.470588%,56.470588%,43.921569%);fill-opacity:1;" d="M 305.175781 364.496094 L 800.296875 364.496094 L 800.296875 373.191406 L 305.175781 373.191406 Z M 305.175781 364.496094 "/>
<path style=" stroke:none;fill-rule:nonzero;fill:rgb(96.470588%,56.470588%,43.921569%);fill-opacity:1;" d="M 305.175781 344.667969 L 800.296875 344.667969 L 800.296875 353.316406 L 305.175781 353.316406 Z M 305.175781 344.667969 "/>
<path style=" stroke:none;fill-rule:nonzero;fill:rgb(96.470588%,56.470588%,43.921569%);fill-opacity:1;" d="M 305.175781 613.609375 L 617.261719 613.609375 L 617.261719 622.289062 L 305.175781 622.289062 Z M 305.175781 613.609375 "/>
<path style=" stroke:none;fill-rule:nonzero;fill:rgb(96.470588%,56.470588%,43.921569%);fill-opacity:1;" d="M 305.175781 593.757812 L 800.296875 593.757812 L 800.296875 602.417969 L 305.175781 602.417969 Z M 305.175781 593.757812 "/>
<path style=" stroke:none;fill-rule:nonzero;fill:rgb(96.470588%,56.470588%,43.921569%);fill-opacity:1;" d="M 305.175781 573.898438 L 800.296875 573.898438 L 800.296875 582.578125 L 305.175781 582.578125 Z M 305.175781 573.898438 "/>
<path style=" stroke:none;fill-rule:nonzero;fill:rgb(96.470588%,56.470588%,43.921569%);fill-opacity:1;" d="M 305.175781 504.679688 L 486.328125 504.679688 L 486.328125 513.34375 L 305.175781 513.34375 Z M 305.175781 504.679688 "/>
<path style=" stroke:none;fill-rule:nonzero;fill:rgb(96.470588%,56.470588%,43.921569%);fill-opacity:1;" d="M 305.175781 484.808594 L 800.296875 484.808594 L 800.296875 493.503906 L 305.175781 493.503906 Z M 305.175781 484.808594 "/>
<path style=" stroke:none;fill-rule:nonzero;fill:rgb(96.470588%,56.470588%,43.921569%);fill-opacity:1;" d="M 305.175781 464.988281 L 800.296875 464.988281 L 800.296875 473.601562 L 305.175781 473.601562 Z M 305.175781 464.988281 "/>
<path style=" stroke:none;fill-rule:nonzero;fill:rgb(69.803922%,88.627451%,93.72549%);fill-opacity:1;" d="M 474.792969 253.019531 L 630.707031 253.019531 L 630.707031 274.058594 L 474.792969 274.058594 Z M 474.792969 253.019531 "/>
<path style=" stroke:none;fill-rule:nonzero;fill:rgb(96.470588%,56.470588%,43.921569%);fill-opacity:1;" d="M 316.804688 938.636719 L 437.085938 938.636719 L 437.085938 951.339844 L 316.804688 951.339844 Z M 316.804688 938.636719 "/>
<path style=" stroke:none;fill-rule:nonzero;fill:rgb(100%,85.882353%,46.666667%);fill-opacity:1;" d="M 274.285156 932.3125 L 300.042969 932.3125 L 300.042969 957.691406 L 274.285156 957.691406 Z M 274.285156 932.3125 "/>
<path style=" stroke:none;fill-rule:nonzero;fill:rgb(96.470588%,56.470588%,43.921569%);fill-opacity:1;" d="M 518.710938 938.636719 L 638.925781 938.636719 L 638.925781 951.339844 L 518.710938 951.339844 Z M 518.710938 938.636719 "/>
<path style=" stroke:none;fill-rule:nonzero;fill:rgb(69.803922%,88.627451%,93.72549%);fill-opacity:1;" d="M 476.160156 932.3125 L 501.886719 932.3125 L 501.886719 957.691406 L 476.160156 957.691406 Z M 476.160156 932.3125 "/>
<path style=" stroke:none;fill-rule:nonzero;fill:rgb(96.470588%,56.470588%,43.921569%);fill-opacity:1;" d="M 718.960938 938.210938 L 839.273438 938.210938 L 839.273438 950.921875 L 718.960938 950.921875 Z M 718.960938 938.210938 "/>
<path style=" stroke:none;fill-rule:nonzero;fill:rgb(96.470588%,56.470588%,43.921569%);fill-opacity:1;" d="M 676.472656 931.882812 L 702.203125 931.882812 L 702.203125 957.261719 L 676.472656 957.261719 Z M 676.472656 931.882812 "/>
<path style=" stroke:none;fill-rule:nonzero;fill:rgb(100%,100%,100%);fill-opacity:1;" d="M 463.039062 1119.273438 L 463.039062 1139.195312 C 463.039062 1150.1875 471.839844 1159.078125 482.75 1159.078125 L 1256.539062 1159.078125 C 1267.453125 1159.078125 1276.253906 1150.1875 1276.253906 1139.195312 L 1276.253906 1119.273438 Z M 463.039062 1119.273438 "/>
<path style=" stroke:none;fill-rule:nonzero;fill:rgb(40.784314%,41.176471%,41.176471%);fill-opacity:1;" d="M 1238.640625 1119.273438 L 1238.640625 698.378906 C 1238.640625 675 1219.832031 655.980469 1196.644531 655.980469 L 542.679688 655.980469 C 519.457031 655.980469 500.617188 675 500.617188 698.378906 L 500.617188 1119.273438 "/>
<path style=" stroke:none;fill-rule:nonzero;fill:rgb(90.196078%,90.196078%,89.803922%);fill-opacity:1;" d="M 537.289062 696.164062 L 1202 696.164062 L 1202 1086.734375 L 537.289062 1086.734375 Z M 537.289062 696.164062 "/>
<path style=" stroke:none;fill-rule:nonzero;fill:rgb(100%,100%,100%);fill-opacity:1;" d="M 880.492188 676.265625 C 880.492188 682.332031 875.652344 687.230469 869.644531 687.230469 C 863.671875 687.230469 858.796875 682.332031 858.796875 676.265625 C 858.796875 670.226562 863.671875 665.324219 869.644531 665.324219 C 875.652344 665.324219 880.492188 670.226562 880.492188 676.265625 Z M 880.492188 676.265625 "/>
<path style=" stroke:none;fill-rule:nonzero;fill:rgb(73.333333%,75.294118%,76.862745%);fill-opacity:1;" d="M 537.289062 696.164062 L 1202 696.164062 L 1202 728.960938 L 537.289062 728.960938 Z M 537.289062 696.164062 "/>
<path style=" stroke:none;fill-rule:nonzero;fill:rgb(96.470588%,56.470588%,43.921569%);fill-opacity:1;" d="M 568.992188 712.566406 C 568.992188 717.496094 565.03125 721.53125 560.128906 721.53125 C 555.21875 721.53125 551.226562 717.496094 551.226562 712.566406 C 551.226562 707.605469 555.21875 703.570312 560.128906 703.570312 C 565.03125 703.570312 568.992188 707.605469 568.992188 712.566406 Z M 568.992188 712.566406 "/>
<path style=" stroke:none;fill-rule:nonzero;fill:rgb(100%,85.882353%,46.666667%);fill-opacity:1;" d="M 599.847656 712.566406 C 599.847656 717.496094 595.886719 721.53125 590.949219 721.53125 C 586.046875 721.53125 582.050781 717.496094 582.050781 712.566406 C 582.050781 707.605469 586.046875 703.570312 590.949219 703.570312 C 595.886719 703.570312 599.847656 707.605469 599.847656 712.566406 Z M 599.847656 712.566406 "/>
<path style=" stroke:none;fill-rule:nonzero;fill:rgb(69.803922%,88.627451%,93.72549%);fill-opacity:1;" d="M 630.644531 712.566406 C 630.644531 717.496094 626.683594 721.53125 621.804688 721.53125 C 616.871094 721.53125 612.871094 717.496094 612.871094 712.566406 C 612.871094 707.605469 616.871094 703.570312 621.804688 703.570312 C 626.683594 703.570312 630.644531 707.605469 630.644531 712.566406 Z M 630.644531 712.566406 "/>
<path style=" stroke:none;fill-rule:nonzero;fill:rgb(81.568627%,86.27451%,89.803922%);fill-opacity:1;" d="M 1363.839844 1121.996094 L 1195.90625 1121.996094 C 1180.695312 1121.996094 1168.25 1109.722656 1168.25 1094.742188 C 1168.25 1079.746094 1180.695312 1067.480469 1195.90625 1067.480469 L 1363.839844 1067.480469 C 1379.046875 1067.480469 1391.476562 1079.746094 1391.476562 1094.742188 C 1391.476562 1109.722656 1379.046875 1121.996094 1363.839844 1121.996094 Z M 1363.839844 1121.996094 "/>
<path style=" stroke:none;fill-rule:nonzero;fill:rgb(81.568627%,86.27451%,89.803922%);fill-opacity:1;" d="M 1474.269531 1228.019531 L 1182.824219 1228.019531 C 1167.625 1228.019531 1155.183594 1215.75 1155.183594 1200.753906 C 1155.183594 1185.765625 1167.625 1173.492188 1182.824219 1173.492188 L 1474.269531 1173.492188 C 1489.480469 1173.492188 1501.910156 1185.765625 1501.910156 1200.753906 C 1501.910156 1215.75 1489.480469 1228.019531 1474.269531 1228.019531 Z M 1474.269531 1228.019531 "/>
<path style=" stroke:none;fill-rule:nonzero;fill:rgb(81.568627%,86.27451%,89.803922%);fill-opacity:1;" d="M 1308.011719 1150.875 L 1308.011719 1144.671875 C 1308.011719 1131.382812 1319.035156 1120.515625 1332.503906 1120.515625 L 1198.746094 1120.515625 C 1212.222656 1120.515625 1223.242188 1131.382812 1223.242188 1144.671875 L 1223.242188 1150.875 C 1223.242188 1164.167969 1212.222656 1175.035156 1198.746094 1175.035156 L 1332.503906 1175.035156 C 1319.035156 1175.03125 1308.011719 1164.164062 1308.011719 1150.875 Z M 1308.011719 1150.875 "/>
<path style=" stroke:none;fill-rule:nonzero;fill:rgb(20%,20%,20%);fill-opacity:1;" d="M 1180.664062 712.566406 L 1187.09375 706.03125 C 1188.03125 705.136719 1188.03125 703.613281 1187.09375 702.648438 C 1186.183594 701.726562 1184.65625 701.726562 1183.714844 702.648438 L 1177.28125 709.167969 L 1170.855469 702.648438 C 1169.90625 701.726562 1168.417969 701.726562 1167.476562 702.648438 C 1166.535156 703.613281 1166.535156 705.136719 1167.476562 706.03125 L 1173.933594 712.566406 L 1167.476562 719.0625 C 1166.535156 719.972656 1166.535156 721.53125 1167.476562 722.460938 C 1168.417969 723.421875 1169.90625 723.421875 1170.855469 722.460938 L 1177.28125 715.960938 L 1183.714844 722.460938 C 1184.65625 723.421875 1186.183594 723.421875 1187.09375 722.460938 C 1188.03125 721.53125 1188.03125 719.972656 1187.09375 719.0625 Z M 1180.664062 712.566406 "/>
<path style=" stroke:none;fill-rule:nonzero;fill:rgb(85.098039%,87.058824%,90.196078%);fill-opacity:1;" d="M 1130.898438 962.84375 C 1130.898438 968.5 1126.222656 973.066406 1120.507812 973.066406 L 791.136719 973.066406 C 785.386719 973.066406 780.773438 968.5 780.773438 962.84375 L 780.773438 758.195312 C 780.773438 752.566406 785.386719 747.980469 791.136719 747.980469 L 1120.507812 747.980469 C 1126.222656 747.980469 1130.898438 752.566406 1130.898438 758.195312 Z M 1130.898438 962.84375 "/>
<path style=" stroke:none;fill-rule:nonzero;fill:rgb(20%,20%,20%);fill-opacity:1;" d="M 1130.898438 962.84375 C 1130.898438 968.5 1126.222656 973.066406 1120.507812 973.066406 L 791.136719 973.066406 C 785.386719 973.066406 780.773438 968.5 780.773438 962.84375 L 780.773438 758.195312 C 780.773438 752.566406 785.386719 747.980469 791.136719 747.980469 L 1120.507812 747.980469 C 1126.222656 747.980469 1130.898438 752.566406 1130.898438 758.195312 Z M 1130.898438 962.84375 "/>
<path style=" stroke:none;fill-rule:nonzero;fill:rgb(96.470588%,56.470588%,43.921569%);fill-opacity:1;" d="M 807.347656 747.980469 L 780.742188 774.175781 L 780.742188 793.039062 L 826.507812 747.980469 Z M 807.347656 747.980469 "/>
<path style=" stroke:none;fill-rule:nonzero;fill:rgb(69.803922%,88.627451%,93.72549%);fill-opacity:1;" d="M 849.4375 747.980469 L 780.742188 815.710938 L 780.742188 834.574219 L 868.574219 747.980469 Z M 849.4375 747.980469 "/>
<path style=" stroke:none;fill-rule:nonzero;fill:rgb(96.470588%,56.470588%,43.921569%);fill-opacity:1;" d="M 891.574219 747.980469 L 780.742188 857.21875 L 780.742188 876.113281 L 910.703125 747.980469 Z M 891.574219 747.980469 "/>
<path style=" stroke:none;fill-rule:nonzero;fill:rgb(69.803922%,88.627451%,93.72549%);fill-opacity:1;" d="M 933.667969 747.980469 L 780.742188 898.757812 L 780.742188 917.632812 L 952.800781 747.980469 Z M 933.667969 747.980469 "/>
<path style=" stroke:none;fill-rule:nonzero;fill:rgb(96.470588%,56.470588%,43.921569%);fill-opacity:1;" d="M 975.796875 747.980469 L 780.742188 940.253906 L 780.742188 959.148438 L 994.929688 747.980469 Z M 975.796875 747.980469 "/>
<path style=" stroke:none;fill-rule:nonzero;fill:rgb(69.803922%,88.627451%,93.72549%);fill-opacity:1;" d="M 1017.894531 747.980469 L 789.773438 972.929688 C 790.195312 973.011719 790.652344 973.066406 791.136719 973.066406 L 808.738281 973.066406 L 1037.023438 747.980469 Z M 1017.894531 747.980469 "/>
<path style=" stroke:none;fill-rule:nonzero;fill:rgb(96.470588%,56.470588%,43.921569%);fill-opacity:1;" d="M 850.835938 973.066406 L 1079.15625 747.980469 L 1060.023438 747.980469 L 831.738281 973.066406 Z M 850.835938 973.066406 "/>
<path style=" stroke:none;fill-rule:nonzero;fill:rgb(69.803922%,88.627451%,93.72549%);fill-opacity:1;" d="M 892.96875 973.066406 L 1121.21875 748.050781 C 1120.953125 748.011719 1120.730469 747.980469 1120.507812 747.980469 L 1102.152344 747.980469 L 873.839844 973.066406 Z M 892.96875 973.066406 "/>
<path style=" stroke:none;fill-rule:nonzero;fill:rgb(96.470588%,56.470588%,43.921569%);fill-opacity:1;" d="M 935.066406 973.066406 L 1130.898438 780.039062 L 1130.898438 761.179688 L 915.929688 973.066406 Z M 935.066406 973.066406 "/>
<path style=" stroke:none;fill-rule:nonzero;fill:rgb(69.803922%,88.627451%,93.72549%);fill-opacity:1;" d="M 977.195312 973.066406 L 1130.898438 821.539062 L 1130.898438 802.679688 L 958.066406 973.066406 Z M 977.195312 973.066406 "/>
<path style=" stroke:none;fill-rule:nonzero;fill:rgb(96.470588%,56.470588%,43.921569%);fill-opacity:1;" d="M 1019.289062 973.066406 L 1130.898438 863.078125 L 1130.898438 844.183594 L 1000.160156 973.066406 Z M 1019.289062 973.066406 "/>
<path style=" stroke:none;fill-rule:nonzero;fill:rgb(69.803922%,88.627451%,93.72549%);fill-opacity:1;" d="M 1061.417969 973.066406 L 1130.898438 904.578125 L 1130.898438 885.722656 L 1042.285156 973.066406 Z M 1061.417969 973.066406 "/>
<path style=" stroke:none;fill-rule:nonzero;fill:rgb(96.470588%,56.470588%,43.921569%);fill-opacity:1;" d="M 1103.550781 973.066406 L 1130.898438 946.113281 L 1130.898438 927.253906 L 1084.386719 973.066406 Z M 1103.550781 973.066406 "/>
<path style=" stroke:none;fill-rule:nonzero;fill:rgb(100%,100%,100%);fill-opacity:1;" d="M 795.714844 761.265625 L 1115.925781 761.265625 L 1115.925781 959.773438 L 795.714844 959.773438 Z M 795.714844 761.265625 "/>
<path style=" stroke:none;fill-rule:nonzero;fill:rgb(73.333333%,75.294118%,76.862745%);fill-opacity:1;" d="M 816.960938 780.039062 L 899.367188 780.039062 L 899.367188 815.710938 L 816.960938 815.710938 Z M 816.960938 780.039062 "/>
<path style=" stroke:none;fill-rule:nonzero;fill:rgb(95.294118%,95.294118%,95.294118%);fill-opacity:1;" d="M 1032.964844 772.355469 L 1102.152344 772.355469 L 1102.152344 851.738281 L 1032.964844 851.738281 Z M 1032.964844 772.355469 "/>
<path style=" stroke:none;fill-rule:nonzero;fill:rgb(100%,100%,100%);fill-opacity:1;" d="M 601.34375 853.660156 L 948.089844 853.660156 L 948.089844 1060.121094 L 601.34375 1060.121094 Z M 601.34375 853.660156 "/>
<path style=" stroke:none;fill-rule:nonzero;fill:rgb(95.294118%,95.294118%,95.294118%);fill-opacity:1;" d="M 775.671875 952.394531 L 601.34375 1060.121094 L 601.34375 853.660156 Z M 775.671875 952.394531 "/>
<path style=" stroke:none;fill-rule:nonzero;fill:rgb(95.294118%,95.294118%,95.294118%);fill-opacity:1;" d="M 773.792969 952.394531 L 948.089844 1060.121094 L 948.089844 853.660156 Z M 773.792969 952.394531 "/>
<path style=" stroke:none;fill-rule:nonzero;fill:rgb(73.333333%,75.294118%,76.862745%);fill-opacity:1;" d="M 775.445312 983.746094 L 601.34375 853.660156 L 948.089844 853.660156 Z M 775.445312 983.746094 "/>
<path style=" stroke:none;fill-rule:nonzero;fill:rgb(100%,100%,100%);fill-opacity:1;" d="M 775.347656 950.566406 L 601.34375 853.660156 L 948.089844 853.660156 Z M 775.347656 950.566406 "/>
<path style=" stroke:none;fill-rule:nonzero;fill:rgb(63.921569%,63.921569%,63.529412%);fill-opacity:1;" d="M 1082.207031 843.398438 C 1030.980469 843.398438 982.84375 823.753906 946.597656 788.0625 C 871.851562 714.328125 871.851562 594.398438 946.597656 520.671875 C 982.84375 484.96875 1030.980469 465.335938 1082.207031 465.335938 C 1133.402344 465.335938 1181.566406 484.96875 1217.757812 520.671875 C 1253.976562 556.414062 1273.914062 603.875 1273.914062 654.339844 C 1273.914062 704.859375 1253.976562 752.308594 1217.757812 788.0625 C 1181.566406 823.753906 1133.402344 843.398438 1082.207031 843.398438 Z M 1082.207031 514.734375 C 1044.371094 514.734375 1008.765625 529.261719 982.058594 555.597656 C 926.8125 610.050781 926.8125 698.660156 982.058594 753.105469 C 1008.765625 779.496094 1044.371094 794.003906 1082.207031 794.003906 C 1120.054688 794.003906 1155.617188 779.496094 1182.351562 753.105469 C 1209.117188 726.746094 1223.828125 691.6875 1223.828125 654.339844 C 1223.828125 617.066406 1209.117188 581.984375 1182.351562 555.597656 C 1155.617188 529.257812 1120.054688 514.734375 1082.207031 514.734375 Z M 1082.207031 514.734375 "/>
<use xlink:href="#surface5" mask="url(#mask0)"/>
<use xlink:href="#surface8" mask="url(#mask1)"/>
<path style=" stroke:none;fill-rule:nonzero;fill:rgb(100%,100%,100%);fill-opacity:1;" d="M 974.078125 637.101562 C 972.648438 637.101562 971.1875 636.898438 969.722656 636.472656 C 961.792969 634.101562 957.28125 625.828125 959.683594 618 C 960.820312 614.316406 962.125 610.683594 963.582031 607.109375 C 973.65625 582.550781 990.933594 562.066406 1013.605469 547.910156 C 1020.585938 543.507812 1029.878906 545.589844 1034.359375 552.511719 C 1038.785156 559.40625 1036.699219 568.550781 1029.710938 572.9375 C 1012.371094 583.734375 999.179688 599.425781 991.453125 618.21875 C 990.351562 620.972656 989.308594 623.730469 988.464844 626.566406 C 986.515625 632.949219 980.539062 637.101562 974.078125 637.101562 Z M 974.078125 637.101562 "/>
<path style=" stroke:none;fill-rule:nonzero;fill:rgb(100%,100%,100%);fill-opacity:1;" d="M 988.660156 731.476562 C 983.785156 731.476562 979.046875 729.183594 976.152344 724.925781 C 965.628906 709.53125 958.515625 691.6875 955.6875 673.335938 C 954.453125 665.234375 960.078125 657.660156 968.296875 656.394531 C 976.476562 655.207031 984.144531 660.769531 985.410156 668.847656 C 987.585938 682.910156 993.007812 696.566406 1001.101562 708.371094 C 1005.714844 715.160156 1003.894531 724.382812 997.007812 728.960938 C 994.4375 730.660156 991.519531 731.476562 988.660156 731.476562 Z M 988.660156 731.476562 "/>
<path style=" stroke:none;fill-rule:nonzero;fill:rgb(63.921569%,63.921569%,63.529412%);fill-opacity:1;" d="M 1421.382812 1023.675781 L 1182.351562 788.0625 L 1217.757812 753.105469 L 1456.789062 988.769531 Z M 1421.382812 1023.675781 "/>
<path style=" stroke:none;fill-rule:nonzero;fill:rgb(20%,20%,20%);fill-opacity:1;" d="M 1051.320312 213.460938 L 918.628906 213.460938 C 915.835938 213.460938 913.628906 211.269531 913.628906 208.515625 C 913.628906 205.800781 915.835938 203.597656 918.628906 203.597656 L 1051.320312 203.597656 C 1054.140625 203.597656 1056.351562 205.800781 1056.351562 208.515625 C 1056.351562 211.269531 1054.140625 213.460938 1051.320312 213.460938 Z M 1051.320312 213.460938 "/>
<path style=" stroke:none;fill-rule:nonzero;fill:rgb(20%,20%,20%);fill-opacity:1;" d="M 1097.503906 177.824219 L 1076.070312 177.824219 C 1073.304688 177.824219 1071.035156 175.609375 1071.035156 172.894531 C 1071.035156 170.15625 1073.304688 167.9375 1076.070312 167.9375 L 1097.503906 167.9375 C 1100.234375 167.9375 1102.472656 170.15625 1102.472656 172.894531 C 1102.472656 175.609375 1100.234375 177.824219 1097.503906 177.824219 Z M 1097.503906 177.824219 "/>
<path style=" stroke:none;fill-rule:nonzero;fill:rgb(20%,20%,20%);fill-opacity:1;" d="M 1123.042969 259.953125 L 1101.605469 259.953125 C 1098.8125 259.953125 1096.5625 257.761719 1096.5625 255.003906 C 1096.5625 252.28125 1098.8125 250.070312 1101.605469 250.070312 L 1123.042969 250.070312 C 1125.800781 250.070312 1128.011719 252.28125 1128.011719 255.003906 C 1128.007812 257.761719 1125.800781 259.953125 1123.042969 259.953125 Z M 1123.042969 259.953125 "/>
<path style=" stroke:none;fill-rule:nonzero;fill:rgb(20%,20%,20%);fill-opacity:1;" d="M 1051.320312 177.824219 L 970.53125 177.824219 C 967.773438 177.824219 965.5 175.609375 965.5 172.894531 C 965.5 170.15625 967.773438 167.9375 970.53125 167.9375 L 1051.320312 167.9375 C 1054.140625 167.9375 1056.351562 170.15625 1056.351562 172.894531 C 1056.351562 175.609375 1054.140625 177.824219 1051.320312 177.824219 Z M 1051.320312 177.824219 "/>
<path style=" stroke:none;fill-rule:nonzero;fill:rgb(20%,20%,20%);fill-opacity:1;" d="M 1171.824219 141.589844 L 1074.25 141.589844 C 1071.492188 141.589844 1069.214844 139.371094 1069.214844 136.660156 C 1069.214844 133.929688 1071.488281 131.710938 1074.25 131.710938 L 1171.824219 131.710938 C 1174.550781 131.710938 1176.824219 133.929688 1176.824219 136.660156 C 1176.824219 139.371094 1174.550781 141.589844 1171.824219 141.589844 Z M 1171.824219 141.589844 "/>
<path style=" stroke:none;fill-rule:nonzero;fill:rgb(20%,20%,20%);fill-opacity:1;" d="M 1437.691406 799.667969 L 1304.929688 799.667969 C 1302.175781 799.667969 1299.9375 797.429688 1299.9375 794.707031 C 1299.9375 791.984375 1302.175781 789.769531 1304.929688 789.769531 L 1437.691406 789.769531 C 1440.417969 789.769531 1442.695312 791.984375 1442.695312 794.707031 C 1442.695312 797.429688 1440.421875 799.667969 1437.691406 799.667969 Z M 1437.691406 799.667969 "/>
<path style=" stroke:none;fill-rule:nonzero;fill:rgb(20%,20%,20%);fill-opacity:1;" d="M 1483.777344 764.011719 L 1462.34375 764.011719 C 1459.613281 764.011719 1457.339844 761.820312 1457.339844 759.097656 C 1457.339844 756.339844 1459.613281 754.136719 1462.34375 754.136719 L 1483.777344 754.136719 C 1486.570312 754.136719 1488.777344 756.339844 1488.777344 759.097656 C 1488.777344 761.820312 1486.570312 764.011719 1483.777344 764.011719 Z M 1483.777344 764.011719 "/>
<path style=" stroke:none;fill-rule:nonzero;fill:rgb(20%,20%,20%);fill-opacity:1;" d="M 1509.347656 846.152344 L 1487.902344 846.152344 C 1485.148438 846.152344 1482.910156 843.925781 1482.910156 841.207031 C 1482.910156 838.488281 1485.148438 836.273438 1487.902344 836.273438 L 1509.347656 836.273438 C 1512.105469 836.273438 1514.351562 838.488281 1514.351562 841.207031 C 1514.351562 843.925781 1512.105469 846.152344 1509.347656 846.152344 Z M 1509.347656 846.152344 "/>
<path style=" stroke:none;fill-rule:nonzero;fill:rgb(20%,20%,20%);fill-opacity:1;" d="M 1437.691406 764.011719 L 1356.835938 764.011719 C 1354.078125 764.011719 1351.871094 761.820312 1351.871094 759.097656 C 1351.871094 756.339844 1354.078125 754.136719 1356.835938 754.136719 L 1437.691406 754.136719 C 1440.417969 754.136719 1442.695312 756.339844 1442.695312 759.097656 C 1442.695312 761.820312 1440.421875 764.011719 1437.691406 764.011719 Z M 1437.691406 764.011719 "/>
<path style=" stroke:none;fill-rule:nonzero;fill:rgb(20%,20%,20%);fill-opacity:1;" d="M 1558.101562 727.773438 L 1545.5625 727.773438 C 1542.800781 727.773438 1540.589844 725.597656 1540.589844 722.855469 C 1540.589844 720.101562 1542.800781 717.882812 1545.5625 717.882812 L 1558.101562 717.882812 C 1560.894531 717.882812 1563.105469 720.101562 1563.105469 722.855469 C 1563.101562 725.597656 1560.894531 727.773438 1558.101562 727.773438 Z M 1558.101562 727.773438 "/>
<path style=" stroke:none;fill-rule:nonzero;fill:rgb(20%,20%,20%);fill-opacity:1;" d="M 1521.394531 727.773438 L 1497.261719 727.773438 C 1494.46875 727.773438 1492.230469 725.597656 1492.230469 722.855469 C 1492.230469 720.101562 1494.46875 717.882812 1497.261719 717.882812 L 1521.394531 717.882812 C 1524.1875 717.882812 1526.398438 720.101562 1526.398438 722.855469 C 1526.398438 725.597656 1524.191406 727.773438 1521.394531 727.773438 Z M 1521.394531 727.773438 "/>
<path style=" stroke:none;fill-rule:nonzero;fill:rgb(20%,20%,20%);fill-opacity:1;" d="M 1473.09375 727.773438 L 1460.558594 727.773438 C 1457.765625 727.773438 1455.519531 725.597656 1455.519531 722.855469 C 1455.519531 720.101562 1457.765625 717.882812 1460.558594 717.882812 L 1473.09375 717.882812 C 1475.863281 717.882812 1478.070312 720.101562 1478.070312 722.855469 C 1478.070312 725.597656 1475.863281 727.773438 1473.09375 727.773438 Z M 1473.09375 727.773438 "/>
<path style=" stroke:none;fill-rule:nonzero;fill:rgb(20%,20%,20%);fill-opacity:1;" d="M 1432.980469 406.765625 L 1420.480469 406.765625 C 1417.648438 406.765625 1415.4375 404.558594 1415.4375 401.835938 C 1415.4375 399.113281 1417.648438 396.902344 1420.480469 396.902344 L 1432.980469 396.902344 C 1435.742188 396.902344 1437.984375 399.113281 1437.984375 401.835938 C 1437.984375 404.554688 1435.742188 406.765625 1432.980469 406.765625 Z M 1432.980469 406.765625 "/>
<path style=" stroke:none;fill-rule:nonzero;fill:rgb(20%,20%,20%);fill-opacity:1;" d="M 1404.980469 406.765625 L 1389.519531 406.765625 C 1386.792969 406.765625 1384.484375 404.558594 1384.484375 401.835938 C 1384.484375 399.113281 1386.792969 396.902344 1389.519531 396.902344 L 1404.980469 396.902344 C 1407.738281 396.902344 1409.988281 399.113281 1409.988281 401.835938 C 1409.988281 404.554688 1407.738281 406.765625 1404.980469 406.765625 Z M 1404.980469 406.765625 "/>
<path style=" stroke:none;fill-rule:nonzero;fill:rgb(20%,20%,20%);fill-opacity:1;" d="M 1374.058594 406.765625 L 1361.515625 406.765625 C 1358.761719 406.765625 1356.519531 404.558594 1356.519531 401.835938 C 1356.519531 399.113281 1358.761719 396.902344 1361.515625 396.902344 L 1374.058594 396.902344 C 1376.824219 396.902344 1379.089844 399.113281 1379.089844 401.835938 C 1379.089844 404.554688 1376.824219 406.765625 1374.058594 406.765625 Z M 1374.058594 406.765625 "/>
<path style=" stroke:none;fill-rule:nonzero;fill:rgb(20%,20%,20%);fill-opacity:1;" d="M 1464 442.9375 L 1401.894531 442.9375 C 1399.136719 442.9375 1396.890625 440.746094 1396.890625 437.988281 C 1396.890625 435.28125 1399.136719 433.058594 1401.894531 433.058594 L 1464 433.058594 C 1466.761719 433.058594 1469.035156 435.28125 1469.035156 437.988281 C 1469.035156 440.746094 1466.761719 442.9375 1464 442.9375 Z M 1464 442.9375 "/>
<path style=" stroke:none;fill-rule:nonzero;fill:rgb(20%,20%,20%);fill-opacity:1;" d="M 590.949219 111.054688 L 578.445312 111.054688 C 575.683594 111.054688 573.410156 108.835938 573.410156 106.113281 C 573.410156 103.386719 575.683594 101.183594 578.445312 101.183594 L 590.949219 101.183594 C 593.707031 101.183594 595.988281 103.386719 595.988281 106.113281 C 595.988281 108.835938 593.710938 111.054688 590.949219 111.054688 Z M 590.949219 111.054688 "/>
<path style=" stroke:none;fill-rule:nonzero;fill:rgb(20%,20%,20%);fill-opacity:1;" d="M 621.871094 111.054688 L 606.378906 111.054688 C 603.621094 111.054688 601.410156 108.835938 601.410156 106.113281 C 601.410156 103.386719 603.621094 101.183594 606.378906 101.183594 L 621.871094 101.183594 C 624.632812 101.183594 626.871094 103.386719 626.871094 106.113281 C 626.875 108.835938 624.632812 111.054688 621.871094 111.054688 Z M 621.871094 111.054688 "/>
<path style=" stroke:none;fill-rule:nonzero;fill:rgb(20%,20%,20%);fill-opacity:1;" d="M 649.839844 111.054688 L 637.300781 111.054688 C 634.542969 111.054688 632.304688 108.835938 632.304688 106.113281 C 632.304688 103.386719 634.542969 101.183594 637.300781 101.183594 L 649.839844 101.183594 C 652.601562 101.183594 654.875 103.386719 654.875 106.113281 C 654.875 108.835938 652.601562 111.054688 649.839844 111.054688 Z M 649.839844 111.054688 "/>
<path style=" stroke:none;fill-rule:nonzero;fill:rgb(20%,20%,20%);fill-opacity:1;" d="M 609.464844 74.894531 L 547.359375 74.894531 C 544.628906 74.894531 542.355469 72.699219 542.355469 69.945312 C 542.355469 67.230469 544.628906 65.03125 547.359375 65.03125 L 609.464844 65.03125 C 612.257812 65.03125 614.5 67.230469 614.5 69.945312 C 614.5 72.699219 612.257812 74.894531 609.464844 74.894531 Z M 609.464844 74.894531 "/>
<path style=" stroke:none;fill-rule:nonzero;fill:rgb(20%,20%,20%);fill-opacity:1;" d="M 378.910156 1079.753906 L 316.804688 1079.753906 C 314.042969 1079.753906 311.800781 1077.527344 311.800781 1074.808594 C 311.800781 1072.101562 314.042969 1069.859375 316.804688 1069.859375 L 378.910156 1069.859375 C 381.667969 1069.859375 383.941406 1072.101562 383.941406 1074.808594 C 383.941406 1077.527344 381.667969 1079.753906 378.910156 1079.753906 Z M 378.910156 1079.753906 "/>
<path style=" stroke:none;fill-rule:nonzero;fill:rgb(20%,20%,20%);fill-opacity:1;" d="M 398.140625 1050.40625 L 336.035156 1050.40625 C 333.304688 1050.40625 331.03125 1048.175781 331.03125 1045.457031 C 331.03125 1042.730469 333.304688 1040.542969 336.035156 1040.542969 L 398.140625 1040.542969 C 400.894531 1040.542969 403.140625 1042.730469 403.140625 1045.457031 C 403.140625 1048.175781 400.894531 1050.40625 398.140625 1050.40625 Z M 398.140625 1050.40625 "/>
<path style=" stroke:none;fill-rule:nonzero;fill:rgb(81.568627%,86.27451%,89.803922%);fill-opacity:1;" d="M 243.554688 925.65625 L 141.1875 925.65625 C 132.394531 925.65625 125.214844 932.75 125.214844 941.414062 L 125.214844 942.707031 C 125.214844 951.375 132.394531 958.449219 141.1875 958.449219 L 243.554688 958.449219 C 252.359375 958.449219 259.539062 951.375 259.539062 942.707031 L 259.539062 941.414062 C 259.539062 932.75 252.359375 925.65625 243.554688 925.65625 Z M 243.554688 925.65625 "/>
<path style=" stroke:none;fill-rule:nonzero;fill:rgb(81.568627%,86.27451%,89.803922%);fill-opacity:1;" d="M 304.761719 989.457031 L 145.835938 989.457031 C 136.691406 989.457031 129.191406 996.835938 129.191406 1005.855469 C 129.191406 1014.871094 136.691406 1022.261719 145.835938 1022.261719 L 304.761719 1022.261719 C 313.921875 1022.261719 321.394531 1014.871094 321.394531 1005.855469 C 321.390625 996.835938 313.921875 989.457031 304.761719 989.457031 Z M 304.761719 989.457031 "/>
<path style=" stroke:none;fill-rule:nonzero;fill:rgb(81.568627%,86.27451%,89.803922%);fill-opacity:1;" d="M 367.875 989.457031 L 342.257812 989.457031 C 333.417969 989.457031 326.191406 996.582031 326.191406 1005.292969 L 326.191406 1006.417969 C 326.191406 1015.132812 333.417969 1022.261719 342.257812 1022.261719 L 367.875 1022.261719 C 376.710938 1022.261719 383.9375 1015.132812 383.9375 1006.417969 L 383.9375 1005.292969 C 383.941406 996.582031 376.710938 989.457031 367.875 989.457031 Z M 367.875 989.457031 "/>
<path style=" stroke:none;fill-rule:nonzero;fill:rgb(81.568627%,86.27451%,89.803922%);fill-opacity:1;" d="M 224.898438 957.570312 L 144.414062 957.570312 C 152.519531 957.570312 159.148438 964.105469 159.148438 972.101562 L 159.148438 975.84375 C 159.148438 983.835938 152.519531 990.382812 144.414062 990.382812 L 224.898438 990.382812 C 216.800781 990.382812 210.164062 983.835938 210.164062 975.84375 L 210.164062 972.101562 C 210.164062 964.105469 216.800781 957.570312 224.898438 957.570312 Z M 224.898438 957.570312 "/>
<path style=" stroke:none;fill-rule:evenodd;fill:rgb(20%,19.607843%,21.568627%);fill-opacity:1;" d="M 1287.945312 830.035156 L 1386.023438 830.035156 C 1405.03125 830.035156 1420.574219 845.371094 1420.574219 864.09375 L 1420.574219 1120.828125 C 1420.574219 1139.554688 1405.03125 1154.871094 1386.023438 1154.871094 L 1287.945312 1154.871094 C 1268.945312 1154.871094 1253.414062 1139.554688 1253.414062 1120.828125 L 1253.414062 864.09375 C 1253.414062 845.371094 1268.945312 830.035156 1287.945312 830.035156 Z M 1287.945312 830.035156 "/>
<path style=" stroke:none;fill-rule:evenodd;fill:rgb(100%,100%,100%);fill-opacity:1;" d="M 1268.597656 857.285156 L 1405.378906 857.285156 C 1405.636719 857.285156 1405.863281 857.492188 1405.863281 857.769531 L 1405.863281 1124.433594 C 1405.863281 1124.691406 1405.636719 1124.90625 1405.378906 1124.90625 L 1268.597656 1124.90625 C 1268.332031 1124.90625 1268.113281 1124.691406 1268.113281 1124.433594 L 1268.113281 857.769531 C 1268.113281 857.492188 1268.332031 857.285156 1268.597656 857.285156 Z M 1268.597656 857.285156 "/>
<path style=" stroke:none;fill-rule:evenodd;fill:rgb(100%,100%,100%);fill-opacity:1;" d="M 1336.988281 1147.75 C 1341.640625 1147.75 1345.433594 1144.007812 1345.433594 1139.425781 C 1345.433594 1134.835938 1341.640625 1131.101562 1336.988281 1131.101562 C 1332.339844 1131.101562 1328.546875 1134.835938 1328.546875 1139.425781 C 1328.546875 1144.007812 1332.339844 1147.75 1336.988281 1147.75 Z M 1336.988281 1147.75 "/>
<use xlink:href="#surface11" mask="url(#mask2)"/>
<path style=" stroke:none;fill-rule:evenodd;fill:rgb(88.235294%,89.803922%,92.156863%);fill-opacity:1;" d="M 1280.140625 931.519531 L 1367.800781 931.519531 L 1367.800781 950.921875 L 1280.140625 950.921875 Z M 1280.140625 931.519531 "/>
<path style=" stroke:none;fill-rule:evenodd;fill:rgb(100%,100%,100%);fill-opacity:1;" d="M 1282.445312 933.773438 L 1365.507812 933.773438 L 1365.507812 948.664062 L 1282.445312 948.664062 Z M 1282.445312 933.773438 "/>
<path style=" stroke:none;fill-rule:evenodd;fill:rgb(88.235294%,89.803922%,92.156863%);fill-opacity:1;" d="M 1369.335938 931.519531 L 1393.835938 931.519531 L 1393.835938 950.921875 L 1369.335938 950.921875 Z M 1369.335938 931.519531 "/>
<path style=" stroke:none;fill-rule:evenodd;fill:rgb(14.509804%,36.470588%,67.058824%);fill-opacity:1;" d="M 1371.625 933.773438 L 1391.53125 933.773438 L 1391.53125 948.664062 L 1371.625 948.664062 Z M 1371.625 933.773438 "/>
<path style=" stroke:none;fill-rule:nonzero;fill:rgb(100%,100%,100%);fill-opacity:1;" d="M 1384.570312 939.058594 C 1384.8125 941.605469 1382.917969 943.867188 1380.328125 944.105469 C 1377.746094 944.347656 1375.445312 942.488281 1375.199219 939.933594 C 1374.949219 937.386719 1376.851562 935.109375 1379.433594 934.871094 C 1382.027344 934.628906 1384.324219 936.496094 1384.570312 939.058594 Z M 1377.039062 939.757812 C 1377.191406 941.316406 1378.574219 942.441406 1380.152344 942.296875 C 1381.726562 942.148438 1382.882812 940.773438 1382.730469 939.222656 C 1382.582031 937.679688 1381.183594 936.535156 1379.605469 936.683594 C 1378.046875 936.832031 1376.890625 938.214844 1377.039062 939.757812 Z M 1377.039062 939.757812 "/>
<path style=" stroke:none;fill-rule:nonzero;fill:rgb(100%,100%,100%);fill-opacity:1;" d="M 1387.980469 946.59375 C 1388.015625 946.851562 1387.925781 947.128906 1387.710938 947.328125 C 1387.34375 947.683594 1386.753906 947.675781 1386.398438 947.316406 L 1382.203125 943.101562 C 1381.855469 942.738281 1381.855469 942.160156 1382.210938 941.816406 C 1382.582031 941.449219 1383.171875 941.460938 1383.53125 941.816406 L 1387.726562 946.03125 C 1387.878906 946.191406 1387.960938 946.382812 1387.980469 946.59375 Z M 1387.980469 946.59375 "/>
<path style=" stroke:none;fill-rule:evenodd;fill:rgb(96.470588%,56.470588%,43.921569%);fill-opacity:1;" d="M 1309.625 1001.703125 C 1319.632812 1001.703125 1327.796875 993.652344 1327.796875 983.800781 C 1327.796875 973.929688 1319.632812 965.886719 1309.625 965.886719 C 1299.617188 965.886719 1291.464844 973.929688 1291.464844 983.800781 C 1291.464844 993.65625 1299.613281 1001.703125 1309.625 1001.703125 Z M 1309.625 1001.703125 "/>
<path style=" stroke:none;fill-rule:evenodd;fill:rgb(81.176471%,81.176471%,80.784314%);fill-opacity:1;" d="M 1320.960938 979.148438 L 1309.625 987.199219 L 1298.300781 979.148438 L 1309.625 971.085938 Z M 1320.960938 979.148438 "/>
<path style=" stroke:none;fill-rule:evenodd;fill:rgb(91.764706%,91.372549%,90.980392%);fill-opacity:1;" d="M 1298.300781 992.328125 L 1320.960938 992.328125 L 1320.960938 979.148438 L 1309.625 987.199219 L 1298.300781 979.148438 Z M 1298.300781 992.328125 "/>
<path style=" stroke:none;fill-rule:evenodd;fill:rgb(100%,99.215686%,98.039216%);fill-opacity:1;" d="M 1298.300781 992.328125 L 1320.960938 992.328125 L 1311.683594 985.738281 L 1307.550781 985.738281 Z M 1298.300781 992.328125 "/>
<path style=" stroke:none;fill-rule:evenodd;fill:rgb(69.803922%,88.627451%,93.72549%);fill-opacity:1;" d="M 1309.625 1048.898438 C 1319.632812 1048.898438 1327.796875 1040.859375 1327.796875 1030.996094 C 1327.796875 1021.132812 1319.632812 1013.082031 1309.625 1013.082031 C 1299.617188 1013.082031 1291.464844 1021.132812 1291.464844 1030.996094 C 1291.464844 1040.859375 1299.613281 1048.898438 1309.625 1048.898438 Z M 1309.625 1048.898438 "/>
<path style=" stroke:none;fill-rule:nonzero;fill:rgb(100%,99.215686%,98.039216%);fill-opacity:1;" d="M 1302.222656 1040.363281 C 1304.023438 1040.363281 1305.496094 1038.914062 1305.496094 1037.128906 L 1305.496094 1025.144531 L 1316.035156 1025.144531 L 1316.035156 1031.113281 C 1315.652344 1030.964844 1315.234375 1030.882812 1314.8125 1030.882812 C 1313.003906 1030.882812 1311.53125 1032.335938 1311.53125 1034.109375 C 1311.53125 1035.890625 1313.003906 1037.347656 1314.8125 1037.347656 C 1316.609375 1037.347656 1318.089844 1035.890625 1318.089844 1034.109375 L 1318.089844 1021.082031 L 1303.433594 1021.082031 L 1303.433594 1034.128906 C 1303.066406 1033.988281 1302.660156 1033.894531 1302.222656 1033.894531 C 1300.414062 1033.894531 1298.953125 1035.347656 1298.953125 1037.128906 C 1298.949219 1038.910156 1300.414062 1040.363281 1302.222656 1040.363281 Z M 1302.222656 1040.363281 "/>
<path style=" stroke:none;fill-rule:evenodd;fill:rgb(96.470588%,56.470588%,43.921569%);fill-opacity:1;" d="M 1309.625 1096.105469 C 1319.632812 1096.105469 1327.796875 1088.050781 1327.796875 1078.191406 C 1327.796875 1068.328125 1319.632812 1060.289062 1309.625 1060.289062 C 1299.617188 1060.289062 1291.464844 1068.328125 1291.464844 1078.191406 C 1291.464844 1088.054688 1299.613281 1096.105469 1309.625 1096.105469 Z M 1309.625 1096.105469 "/>
<path style=" stroke:none;fill-rule:nonzero;fill:rgb(100%,100%,100%);fill-opacity:1;" d="M 1314.316406 1088.164062 C 1313.902344 1088.558594 1313.230469 1088.558594 1312.8125 1088.164062 L 1312.433594 1087.78125 C 1312.035156 1087.371094 1311.210938 1087.042969 1310.632812 1087.042969 L 1302.363281 1087.042969 C 1301.769531 1087.042969 1301.132812 1086.605469 1300.9375 1086.0625 L 1297.433594 1076.488281 C 1296.980469 1075.222656 1297.710938 1074.191406 1299.078125 1074.191406 L 1305.949219 1074.191406 C 1306.253906 1073.210938 1306.085938 1072.425781 1305.796875 1071.988281 C 1305.363281 1071.363281 1304.210938 1070.199219 1304.433594 1068.453125 C 1304.5 1067.882812 1304.835938 1066.992188 1305.191406 1066.53125 C 1306.226562 1065.207031 1307.714844 1065.523438 1307.714844 1066.699219 C 1307.714844 1068.109375 1306.953125 1069.511719 1309.636719 1071.242188 C 1312.320312 1072.976562 1314.15625 1076.378906 1314.15625 1076.390625 C 1314.15625 1076.402344 1314.492188 1076.742188 1314.910156 1077.15625 L 1319.445312 1081.621094 C 1319.847656 1082.03125 1319.847656 1082.699219 1319.445312 1083.105469 Z M 1314.316406 1088.164062 "/>
<path style=" stroke:none;fill-rule:nonzero;fill:rgb(100%,100%,100%);fill-opacity:1;" d="M 1320.550781 1083.359375 L 1314.480469 1089.347656 L 1315.882812 1090.714844 L 1321.957031 1084.726562 Z M 1320.550781 1083.359375 "/>
<path style=" stroke:none;fill-rule:evenodd;fill:rgb(100%,85.882353%,46.666667%);fill-opacity:1;" d="M 1364.351562 1096.105469 C 1374.367188 1096.105469 1382.523438 1088.050781 1382.523438 1078.191406 C 1382.523438 1068.328125 1374.367188 1060.289062 1364.351562 1060.289062 C 1354.351562 1060.289062 1346.195312 1068.328125 1346.195312 1078.191406 C 1346.195312 1088.054688 1354.351562 1096.105469 1364.351562 1096.105469 Z M 1364.351562 1096.105469 "/>
<path style=" stroke:none;fill-rule:nonzero;fill:rgb(100%,100%,100%);fill-opacity:1;" d="M 1375.316406 1083.347656 C 1375.640625 1082.300781 1375.816406 1081.21875 1375.816406 1080.105469 C 1375.816406 1073.890625 1370.671875 1068.808594 1364.351562 1068.773438 C 1358.039062 1068.808594 1352.902344 1073.890625 1352.902344 1080.105469 C 1352.902344 1081.21875 1353.0625 1082.316406 1353.386719 1083.367188 C 1353.234375 1083.460938 1353.144531 1083.609375 1353.144531 1083.78125 L 1353.144531 1084.390625 C 1353.144531 1084.675781 1353.378906 1084.898438 1353.65625 1084.898438 L 1354.921875 1084.898438 L 1354.921875 1086 C 1354.921875 1087.296875 1356.464844 1088.34375 1358.382812 1088.367188 L 1358.382812 1079.402344 C 1356.707031 1079.421875 1355.320312 1080.222656 1354.996094 1081.285156 C 1354.949219 1081.429688 1354.921875 1081.589844 1354.921875 1081.773438 L 1354.921875 1083.273438 L 1353.65625 1083.273438 C 1353.5625 1083.273438 1353.472656 1083.300781 1353.386719 1083.367188 L 1353.386719 1082.527344 C 1353.386719 1082.207031 1353.433594 1081.902344 1353.527344 1081.601562 C 1353.746094 1080.902344 1354.199219 1080.285156 1354.8125 1079.820312 L 1354.8125 1079.8125 C 1354.976562 1074.75 1359.195312 1070.671875 1364.351562 1070.648438 C 1369.546875 1070.671875 1373.78125 1074.789062 1373.90625 1079.882812 C 1374.589844 1080.441406 1375.027344 1081.140625 1375.175781 1081.941406 C 1375.210938 1082.140625 1375.238281 1082.332031 1375.238281 1082.527344 L 1375.238281 1083.300781 C 1375.191406 1083.289062 1375.121094 1083.273438 1375.074219 1083.273438 L 1373.707031 1083.273438 L 1373.707031 1081.773438 C 1373.707031 1081.664062 1373.695312 1081.558594 1373.671875 1081.472656 C 1373.453125 1080.320312 1372.042969 1079.457031 1370.304688 1079.402344 L 1370.304688 1088.355469 C 1372.195312 1088.3125 1373.707031 1087.28125 1373.707031 1086 L 1373.707031 1084.898438 L 1375.074219 1084.898438 C 1375.351562 1084.898438 1375.582031 1084.675781 1375.582031 1084.390625 L 1375.582031 1083.78125 C 1375.585938 1083.597656 1375.480469 1083.425781 1375.316406 1083.347656 Z M 1375.316406 1083.347656 "/>
<path style=" stroke:none;fill-rule:evenodd;fill:rgb(17.254902%,48.627451%,72.54902%);fill-opacity:1;" d="M 1364.351562 965.886719 C 1354.351562 965.886719 1346.195312 973.929688 1346.195312 983.785156 C 1346.195312 993.652344 1354.351562 1001.703125 1364.351562 1001.703125 C 1374.367188 1001.703125 1382.523438 993.652344 1382.523438 983.785156 C 1382.523438 973.929688 1374.367188 965.886719 1364.351562 965.886719 Z M 1364.351562 965.886719 "/>
<path style=" stroke:none;fill-rule:nonzero;fill:rgb(100%,100%,100%);fill-opacity:1;" d="M 1372.839844 984.902344 C 1372.839844 984.890625 1372.839844 984.882812 1372.839844 984.863281 L 1372.839844 975.234375 C 1372.839844 974.535156 1372.265625 973.960938 1371.546875 973.960938 C 1370.839844 973.960938 1370.261719 974.535156 1370.261719 975.234375 L 1370.261719 984.863281 C 1370.261719 984.886719 1370.261719 984.894531 1370.261719 984.902344 Z M 1372.839844 984.902344 "/>
<path style=" stroke:none;fill-rule:nonzero;fill:rgb(100%,100%,100%);fill-opacity:1;" d="M 1370.261719 988.132812 C 1370.261719 988.160156 1370.261719 988.164062 1370.261719 988.179688 L 1370.261719 992.351562 C 1370.261719 993.058594 1370.84375 993.628906 1371.546875 993.628906 C 1372.265625 993.628906 1372.84375 993.058594 1372.84375 992.351562 L 1372.84375 988.179688 C 1372.84375 988.164062 1372.84375 988.15625 1372.84375 988.132812 Z M 1370.261719 988.132812 "/>
<path style=" stroke:none;fill-rule:nonzero;fill:rgb(100%,100%,100%);fill-opacity:1;" d="M 1373.289062 987.542969 L 1369.800781 987.542969 C 1369.210938 987.542969 1368.734375 987.070312 1368.734375 986.492188 C 1368.734375 985.910156 1369.210938 985.441406 1369.800781 985.441406 L 1373.289062 985.441406 C 1373.886719 985.441406 1374.367188 985.910156 1374.367188 986.492188 C 1374.367188 987.070312 1373.886719 987.542969 1373.289062 987.542969 Z M 1373.289062 987.542969 "/>
<path style=" stroke:none;fill-rule:nonzero;fill:rgb(100%,100%,100%);fill-opacity:1;" d="M 1365.683594 979.195312 C 1365.683594 979.1875 1365.683594 979.171875 1365.683594 979.152344 L 1365.683594 975.234375 C 1365.683594 974.535156 1365.105469 973.960938 1364.386719 973.960938 C 1363.679688 973.960938 1363.105469 974.535156 1363.105469 975.234375 L 1363.105469 979.152344 C 1363.105469 979.175781 1363.105469 979.1875 1363.105469 979.195312 Z M 1365.683594 979.195312 "/>
<path style=" stroke:none;fill-rule:nonzero;fill:rgb(100%,100%,100%);fill-opacity:1;" d="M 1363.105469 982.429688 C 1363.105469 982.449219 1363.105469 982.460938 1363.105469 982.476562 L 1363.105469 992.351562 C 1363.105469 993.058594 1363.679688 993.628906 1364.386719 993.628906 C 1365.105469 993.628906 1365.683594 993.058594 1365.683594 992.351562 L 1365.683594 982.476562 C 1365.683594 982.460938 1365.683594 982.449219 1365.683594 982.429688 Z M 1363.105469 982.429688 "/>
<path style=" stroke:none;fill-rule:nonzero;fill:rgb(100%,100%,100%);fill-opacity:1;" d="M 1366.144531 981.839844 L 1362.640625 981.839844 C 1362.066406 981.839844 1361.589844 981.375 1361.589844 980.789062 C 1361.589844 980.210938 1362.066406 979.742188 1362.640625 979.742188 L 1366.144531 979.742188 C 1366.734375 979.742188 1367.210938 980.210938 1367.210938 980.789062 C 1367.210938 981.375 1366.734375 981.839844 1366.144531 981.839844 Z M 1366.144531 981.839844 "/>
<path style=" stroke:none;fill-rule:nonzero;fill:rgb(100%,100%,100%);fill-opacity:1;" d="M 1358.441406 982.46875 C 1358.441406 982.449219 1358.453125 982.429688 1358.453125 982.421875 L 1358.453125 975.230469 C 1358.453125 974.535156 1357.875 973.957031 1357.171875 973.957031 C 1356.4375 973.957031 1355.867188 974.535156 1355.867188 975.230469 L 1355.867188 982.421875 C 1355.867188 982.429688 1355.867188 982.449219 1355.867188 982.46875 Z M 1358.441406 982.46875 "/>
<path style=" stroke:none;fill-rule:nonzero;fill:rgb(100%,100%,100%);fill-opacity:1;" d="M 1355.867188 985.691406 C 1355.867188 985.703125 1355.867188 985.714844 1355.867188 985.726562 L 1355.867188 992.351562 C 1355.867188 993.058594 1356.4375 993.628906 1357.171875 993.628906 C 1357.875 993.628906 1358.453125 993.058594 1358.453125 992.351562 L 1358.453125 985.726562 C 1358.453125 985.714844 1358.441406 985.703125 1358.441406 985.691406 Z M 1355.867188 985.691406 "/>
<path style=" stroke:none;fill-rule:nonzero;fill:rgb(100%,100%,100%);fill-opacity:1;" d="M 1358.917969 985.097656 L 1355.410156 985.097656 C 1354.824219 985.097656 1354.351562 984.621094 1354.351562 984.050781 C 1354.351562 983.472656 1354.824219 982.992188 1355.410156 982.992188 L 1358.917969 982.992188 C 1359.492188 982.992188 1359.980469 983.472656 1359.980469 984.050781 C 1359.980469 984.621094 1359.492188 985.097656 1358.917969 985.097656 Z M 1358.917969 985.097656 "/>
<path style=" stroke:none;fill-rule:evenodd;fill:rgb(100%,85.882353%,46.666667%);fill-opacity:1;" d="M 1364.351562 1048.898438 C 1374.367188 1048.898438 1382.523438 1040.859375 1382.523438 1030.996094 C 1382.523438 1021.132812 1374.367188 1013.082031 1364.351562 1013.082031 C 1354.351562 1013.082031 1346.195312 1021.132812 1346.195312 1030.996094 C 1346.195312 1040.859375 1354.351562 1048.898438 1364.351562 1048.898438 Z M 1364.351562 1048.898438 "/>
<path style=" stroke:none;fill-rule:evenodd;fill:rgb(100%,100%,100%);fill-opacity:1;" d="M 1364.351562 1016.722656 C 1356.359375 1016.722656 1349.886719 1023.113281 1349.886719 1030.996094 C 1349.886719 1038.878906 1356.359375 1045.269531 1364.351562 1045.269531 C 1372.359375 1045.269531 1378.835938 1038.878906 1378.835938 1030.996094 C 1378.835938 1023.113281 1372.359375 1016.722656 1364.351562 1016.722656 Z M 1364.351562 1043.21875 C 1357.507812 1043.21875 1351.953125 1037.746094 1351.953125 1030.996094 C 1351.953125 1024.242188 1357.507812 1018.773438 1364.351562 1018.773438 C 1371.199219 1018.773438 1376.753906 1024.242188 1376.753906 1030.996094 C 1376.753906 1037.746094 1371.203125 1043.21875 1364.351562 1043.21875 Z M 1364.351562 1043.21875 "/>
<path style=" stroke:none;fill-rule:evenodd;fill:rgb(100%,100%,100%);fill-opacity:1;" d="M 1364.351562 1023.699219 C 1360.28125 1023.699219 1356.964844 1026.972656 1356.964844 1030.996094 C 1356.964844 1035.011719 1360.28125 1038.296875 1364.351562 1038.296875 C 1368.433594 1038.296875 1371.753906 1035.011719 1371.753906 1030.996094 C 1371.753906 1026.972656 1368.433594 1023.699219 1364.351562 1023.699219 Z M 1364.351562 1023.699219 "/>
<path style=" stroke:none;fill-rule:evenodd;fill:rgb(80%,79.607843%,78.823529%);fill-opacity:1;" d="M 1342.636719 851.207031 L 1331.339844 851.207031 C 1328.929688 851.207031 1326.960938 849.257812 1326.960938 846.875 C 1326.960938 844.5 1328.929688 842.539062 1331.339844 842.539062 L 1342.636719 842.539062 C 1345.050781 842.539062 1347.027344 844.5 1347.027344 846.875 C 1347.027344 849.257812 1345.050781 851.207031 1342.636719 851.207031 Z M 1342.636719 851.207031 "/>
</g>
</svg>
