<?xml version="1.0" standalone="no"?>
<!DOCTYPE svg PUBLIC "-//W3C//DTD SVG 20010904//EN"
 "http://www.w3.org/TR/2001/REC-SVG-20010904/DTD/svg10.dtd">
<svg version="1.0" xmlns="http://www.w3.org/2000/svg"
 width="1201.000000pt" height="677.000000pt" viewBox="0 0 1201.000000 677.000000"
 preserveAspectRatio="xMidYMid meet">
<metadata>
Created by potrace 1.16, written by Peter Selinger 2001-2019
</metadata>
<g transform="translate(0.000000,677.000000) scale(0.100000,-0.100000)"
fill="#000000" stroke="none">
<path d="M0 3385 l0 -3385 6005 0 6005 0 0 3385 0 3385 -6005 0 -6005 0 0
-3385z m1170 2660 l0 -35 -144 0 c-126 0 -147 -2 -167 -19 -32 -26 -32 -86 0
-112 19 -16 41 -19 129 -19 150 0 202 -28 223 -118 9 -41 -6 -100 -34 -131
-41 -44 -75 -51 -252 -51 l-165 0 0 34 0 34 164 4 c188 3 206 10 206 78 0 63
-21 73 -170 80 -125 5 -130 6 -159 34 -74 71 -63 184 22 236 28 18 51 20 190
20 l157 0 0 -35z m287 -67 l103 -103 103 103 c80 79 108 102 130 102 l27 0 0
-260 0 -260 -40 0 -40 0 -2 190 -3 189 -90 -83 -90 -84 -90 87 -90 86 -3 -192
-2 -193 -40 0 -40 0 0 260 0 260 32 0 c28 0 48 -15 135 -102z m835 -156 c59
-140 108 -256 108 -258 0 -2 -17 -4 -38 -4 -36 0 -40 3 -57 40 l-18 40 -144 0
-144 0 -17 -40 c-16 -37 -19 -40 -59 -40 l-42 0 35 83 c20 45 70 162 112 260
l76 178 39 -3 40 -3 109 -253z m628 223 l0 -35 -185 0 -185 0 0 -75 0 -75 185
0 185 0 0 -35 0 -35 -185 0 -185 0 0 -80 0 -80 185 0 185 0 0 -35 0 -35 -230
0 -230 0 0 260 0 260 230 0 230 0 0 -35z m500 -3767 c106 -72 103 -206 -5
-258 -41 -20 -62 -20 -1290 -20 -1228 0 -1249 0 -1290 20 -46 22 -85 80 -85
126 0 46 36 108 77 132 l38 22 1261 0 1261 0 33 -22z m-2515 -1350 c4 -4 14
-4 22 -1 13 5 13 2 4 -15 -14 -26 -14 -35 -1 -27 6 3 10 -3 10 -15 0 -12 4
-19 9 -16 11 7 5 -74 -8 -87 -5 -5 -7 -15 -4 -22 5 -16 -29 -29 -77 -28 -52 0
-83 12 -76 30 3 8 3 19 0 25 -15 24 -10 78 8 98 14 15 16 24 8 39 -8 16 -6 20
13 23 35 6 85 4 92 -4z"/>
<path d="M2127 5950 c-53 -123 -97 -234 -93 -237 2 -2 53 -2 113 -1 l110 3
-53 125 c-30 69 -55 130 -58 135 -2 6 -11 -6 -19 -25z"/>
</g>
</svg>
