<?xml version="1.0" encoding="UTF-8"?><svg xmlns="http://www.w3.org/2000/svg" viewBox="0 0 1028.19 271.4"><defs><style>.d{fill:#fff;}</style></defs><g id="a"/><g id="b"><g id="c"><g><path class="d" d="M146.78,5.27c11.63,3.51,21.31,8.3,29.07,14.35l-23.25,39.6c-6.3-4.12-13.99-7.45-23.07-9.99s-17.62-3.81-25.61-3.81c-7.27,0-12.9,1.27-16.89,3.81-4,2.54-5.99,5.88-5.99,9.99s2.12,7.33,6.36,9.63c4.23,2.3,11.2,5.03,20.89,8.17,11.14,3.39,20.28,6.78,27.43,10.17,7.14,3.39,13.38,8.6,18.71,15.62,5.32,7.03,7.99,16.23,7.99,27.61,0,14.53-4.3,27.07-12.9,37.6-8.6,10.54-20.05,18.53-34.33,23.98-14.29,5.45-29.79,8.17-46.51,8.17-14.29,0-27.61-1.88-39.97-5.63-12.35-3.75-21.92-8.29-28.7-13.62l21.07-43.6c7.27,4.85,15.5,8.6,24.71,11.26,9.2,2.67,18.4,4,27.61,4,8.72,0,15.74-1.27,21.07-3.81,5.32-2.54,7.99-6.36,7.99-11.44,0-4.6-2.12-8.05-6.36-10.35-4.24-2.3-11.33-5.02-21.25-8.17-10.42-3.15-19.14-6.42-26.16-9.81-7.03-3.39-13.08-8.48-18.17-15.26-5.09-6.78-7.63-15.62-7.63-26.52,0-13.08,3.63-24.71,10.9-34.88,7.27-10.17,17.5-18.1,30.7-23.8C77.69,2.85,92.65,0,109.36,0c13.32,0,25.8,1.76,37.42,5.27Z"/><path class="d" d="M337.16,134.79l20.71,38.51c-9.69,9.45-21.74,16.71-36.15,21.8-14.41,5.09-29.61,7.63-45.6,7.63-18.89,0-35.19-3.63-48.87-10.9-13.69-7.27-24.1-17.44-31.25-30.52-7.15-13.08-10.72-28.1-10.72-45.05,0-20.1,4.91-39.06,14.71-56.86,9.81-17.8,23.74-32.09,41.78-42.87C259.83,5.76,280.85,.36,304.82,.36c21.07,0,37.42,4.3,49.05,12.9,11.63,8.6,17.44,20.89,17.44,36.88s-5.76,29.74-17.26,41.24c-11.51,11.51-26.83,20.29-45.96,26.34-19.14,6.06-39.73,9.08-61.77,9.08h-1.82c3.87,18.41,17.44,27.61,40.69,27.61,20.35,0,37.66-6.54,51.96-19.62Zm-69.39-80.11c-9.69,8.36-16.59,19.2-20.71,32.52,22.28-.24,40.02-3.09,53.23-8.54,13.2-5.45,19.8-12.65,19.8-21.62,0-4.84-1.76-8.54-5.27-11.08-3.51-2.54-8.54-3.81-15.08-3.81-11.63,0-22.29,4.18-31.97,12.53Z"/><path class="d" d="M582.22,18.71c10.29,12.48,15.44,30.46,15.44,53.95,0,22.04-4.24,43-12.72,62.85-8.48,19.86-20.83,36.03-37.06,48.5-16.23,12.48-35.37,18.71-57.41,18.71-16.23,0-29.19-3.88-38.88-11.63l-14.17,80.29h-59.22l38.51-216.54c.24-.97,.36-2.3,.36-4,0-3.15-.85-5.39-2.54-6.72-1.7-1.33-4.12-2-7.27-2-2.67,0-6.06,.61-10.17,1.82l6.18-38.15c3.63-.96,8.36-1.87,14.17-2.72,5.81-.85,11.14-1.27,15.99-1.27,10.9,0,19.44,2.79,25.61,8.36,6.18,5.57,9.14,14.05,8.9,25.43l-.73,5.81h1.82c7.02-12.84,16.04-22.95,27.07-30.34,11.02-7.39,24.16-11.08,39.42-11.08,20.83,0,36.39,6.24,46.69,18.71Zm-71.21,126.62c7.87-6.3,13.86-14.65,17.98-25.07,4.12-10.41,6.18-21.8,6.18-34.15s-1.94-20.95-5.81-26.52c-3.88-5.57-9.81-8.36-17.8-8.36-9.45,0-18.41,4.12-26.89,12.35-8.48,8.24-14.05,19.98-16.71,35.24l-8.36,47.96c2.18,2.67,5.45,4.67,9.81,5.99,4.36,1.33,9.08,2,14.17,2,10.41,0,19.56-3.15,27.43-9.45Z"/><path class="d" d="M767.69,134.79l20.71,38.51c-9.69,9.45-21.74,16.71-36.15,21.8-14.41,5.09-29.61,7.63-45.6,7.63-18.89,0-35.19-3.63-48.87-10.9-13.69-7.27-24.1-17.44-31.25-30.52-7.15-13.08-10.72-28.1-10.72-45.05,0-20.1,4.91-39.06,14.71-56.86,9.81-17.8,23.74-32.09,41.78-42.87C690.36,5.76,711.38,.36,735.36,.36c21.07,0,37.42,4.3,49.05,12.9,11.63,8.6,17.44,20.89,17.44,36.88s-5.76,29.74-17.26,41.24c-11.51,11.51-26.83,20.29-45.96,26.34-19.14,6.06-39.73,9.08-61.77,9.08h-1.82c3.87,18.41,17.44,27.61,40.69,27.61,20.35,0,37.66-6.54,51.96-19.62Zm-69.39-80.11c-9.69,8.36-16.59,19.2-20.71,32.52,22.28-.24,40.02-3.09,53.23-8.54,13.2-5.45,19.8-12.65,19.8-21.62,0-4.84-1.76-8.54-5.27-11.08-3.51-2.54-8.54-3.81-15.08-3.81-11.63,0-22.29,4.18-31.97,12.53Z"/><path class="d" d="M1012.75,18.71c10.29,12.48,15.44,30.46,15.44,53.95,0,22.04-4.24,43-12.72,62.85-8.48,19.86-20.83,36.03-37.06,48.5-16.23,12.48-35.37,18.71-57.41,18.71-16.23,0-29.19-3.88-38.88-11.63l-14.17,80.29h-59.22l38.51-216.54c.24-.97,.36-2.3,.36-4,0-3.15-.85-5.39-2.54-6.72-1.7-1.33-4.12-2-7.27-2-2.67,0-6.06,.61-10.17,1.82l6.18-38.15c3.63-.96,8.36-1.87,14.17-2.72,5.81-.85,11.14-1.27,15.99-1.27,10.9,0,19.44,2.79,25.61,8.36,6.18,5.57,9.14,14.05,8.9,25.43l-.73,5.81h1.82c7.02-12.84,16.04-22.95,27.07-30.34,11.02-7.39,24.16-11.08,39.42-11.08,20.83,0,36.39,6.24,46.69,18.71Zm-71.21,126.62c7.87-6.3,13.86-14.65,17.98-25.07,4.12-10.41,6.18-21.8,6.18-34.15s-1.94-20.95-5.81-26.52c-3.88-5.57-9.81-8.36-17.8-8.36-9.45,0-18.41,4.12-26.89,12.35-8.48,8.24-14.05,19.98-16.71,35.24l-8.36,47.96c2.18,2.67,5.45,4.67,9.81,5.99,4.36,1.33,9.08,2,14.17,2,10.41,0,19.56-3.15,27.43-9.45Z"/></g></g></g></svg>